<svg width="101" height="32" viewBox="0 0 101 32" fill="none" xmlns="http://www.w3.org/2000/svg">
<path d="M24.6595 6.23318V4.84356H25.6955V3.60645L27.2751 2.16599V4.84356H28.7697V6.23318H27.2751V10.114C27.2751 11.385 27.326 11.4866 27.9035 11.4866C28.1922 11.4866 28.481 11.4358 28.7697 11.3341V12.7576C28.3281 12.9102 27.9714 12.9779 27.5638 12.9779C26.6976 12.9779 26.0352 12.5712 25.8484 11.9442C25.7295 11.5714 25.6955 11.1985 25.6955 10.1987V6.23318H24.6595Z" fill="white"/>
<path d="M38.4128 9.23274H31.67C31.9077 10.7918 32.9268 11.7239 34.4215 11.7239C35.4575 11.7239 36.4256 11.2324 37.0201 10.3851L38.4128 11.0121C37.5296 12.334 36.1029 13.0796 34.3705 13.0796C31.7719 13.0627 29.9206 11.3172 29.9206 8.84296C29.9206 6.47043 31.7889 4.6063 34.1327 4.6063C36.6125 4.6063 38.3619 6.50433 38.4128 9.23274ZM31.7209 8.08036H36.7993C36.5445 6.82631 35.4236 5.89425 34.1667 5.89425C32.9098 5.89425 31.9587 6.74158 31.7209 8.08036Z" fill="white"/>
<path d="M42.4593 4.84356V5.80952C43.5463 5.02997 44.3785 4.70798 45.2278 4.70798C46.077 4.70798 46.8073 5.1147 47.0961 5.75868C47.3169 6.25013 47.3338 6.40265 47.3338 7.53807V11.4527H48.6926V12.8424H45.7713V7.60586C45.7713 6.57211 45.4825 6.14845 44.8201 6.14845C44.1577 6.14845 43.3085 6.50433 42.4593 7.16525V11.4527H43.852V12.8424H39.47V11.4527H40.8797V6.23318H39.47V4.84356H42.4593Z" fill="white"/>
<path d="M57.8854 9.23274H51.1425C51.3803 10.7918 52.3994 11.7239 53.894 11.7239C54.9301 11.7239 55.8982 11.2324 56.4926 10.3851L57.8854 11.0121C57.0022 12.334 55.5755 13.0796 53.843 13.0796C51.2444 13.0627 49.3931 11.3172 49.3931 8.84296C49.3931 6.47043 51.2614 4.6063 53.6053 4.6063C56.085 4.6063 57.8344 6.50433 57.8854 9.23274ZM51.1934 8.08036H56.2718C56.0171 6.82631 54.8961 5.89425 53.6392 5.89425C52.3824 5.89425 51.4312 6.74158 51.1934 8.08036Z" fill="white"/>
<path d="M58.9935 6.23318V4.84356H60.0295V3.60645L61.6091 2.16599V4.84356H63.1037V6.23318H61.6091V10.114C61.6091 11.385 61.66 11.4866 62.2375 11.4866C62.5263 11.4866 62.815 11.4358 63.1037 11.3341V12.7576C62.6621 12.9102 62.3055 12.9779 61.8978 12.9779C61.0316 12.9779 60.3692 12.5712 60.1824 11.9442C60.0635 11.5714 60.0295 11.1985 60.0295 10.1987V6.23318H58.9935Z" fill="white"/>
<path d="M26.0522 28.929V23.7094H24.7953V22.3198H27.6148V28.929H28.8546V30.3186H24.7953V28.929H26.0522ZM25.8823 19.5914C25.8823 19.066 26.307 18.6424 26.8335 18.6424C27.36 18.6424 27.7846 19.066 27.7846 19.5914C27.7846 20.1167 27.36 20.5404 26.8335 20.5404C26.307 20.5404 25.8823 20.1167 25.8823 19.5914Z" fill="white"/>
<path d="M32.5571 22.3198V23.2857C33.6442 22.5062 34.4764 22.1842 35.3256 22.1842C36.1749 22.1842 36.9052 22.5909 37.1939 23.2349C37.4147 23.7263 37.4317 23.8789 37.4317 25.0143V28.929H38.7905V30.3186H35.8691V25.0821C35.8691 24.0483 35.5804 23.6247 34.918 23.6247C34.2556 23.6247 33.4064 23.9805 32.5571 24.6415V28.929H33.9499V30.3186H29.5679V28.929H30.9776V23.7094H29.5679V22.3198H32.5571Z" fill="white"/>
<path d="M49.4099 28.929V30.3186H46.4037V29.1323C45.9451 29.6068 45.7752 29.7593 45.3336 29.9966C44.8241 30.2847 44.1447 30.4542 43.5333 30.4542C41.2404 30.4542 39.5929 28.7256 39.5929 26.3531C39.5929 23.9297 41.3083 22.0825 43.5673 22.0825C44.6373 22.0825 45.5884 22.5231 46.4037 23.3705V20.2014H44.8581V18.8118H47.9662V28.929H49.4099ZM41.2743 26.3022C41.2743 27.9291 42.3104 29.0476 43.822 29.0476C45.2997 29.0476 46.4037 27.8613 46.4037 26.2344C46.4037 24.6584 45.3336 23.5399 43.805 23.5399C42.3613 23.5399 41.2743 24.7262 41.2743 26.3022Z" fill="white"/>
<path d="M58.8534 28.929V30.3186H55.898V29.4035C54.9809 30.0983 54.0807 30.4542 53.2484 30.4542C52.3822 30.4542 51.6179 30.0644 51.3292 29.5051C51.0914 29.0306 51.0235 28.5731 51.0235 27.3868V23.7094H49.9025V22.3198H52.603V27.2004C52.603 28.7764 52.7559 29.0815 53.5542 29.0815C54.2336 29.0815 55.1507 28.6748 55.898 28.0477V23.7094H54.4713V22.3198H57.4606V28.929H58.8534Z" fill="white"/>
<path d="M59.7277 30.3186V27.5732H61.1374V27.8274C61.2733 28.6239 62.0036 29.1154 63.0396 29.1154C64.0417 29.1154 64.6871 28.7425 64.6871 28.1325C64.6871 27.5054 64.3475 27.319 62.8188 27.0479C61.7488 26.8784 61.0864 26.6581 60.6448 26.3192C60.0673 25.8955 59.7277 25.2176 59.7277 24.5398C59.7277 23.1671 60.9166 22.1842 62.5301 22.1842C63.2774 22.1842 63.9568 22.3537 64.4833 22.6418V22.3198H65.8931V24.9634H64.4833V24.472C64.0417 23.8111 63.4473 23.4891 62.632 23.4891C61.7828 23.4891 61.2053 23.8958 61.2053 24.472C61.2053 25.0651 61.4771 25.2007 63.1585 25.4549C64.4494 25.6583 64.9079 25.8108 65.4175 26.1667C65.961 26.5564 66.3177 27.2851 66.3177 28.0138C66.3177 29.4712 65.0778 30.4542 63.2265 30.4542C62.3772 30.4542 61.7149 30.2677 61.1374 29.878V30.3186H59.7277Z" fill="white"/>
<path d="M67.3199 23.7094V22.3198H68.3559V21.0827L69.9355 19.6422V22.3198H71.4301V23.7094H69.9355V27.5902C69.9355 28.8612 69.9865 28.9628 70.5639 28.9628C70.8527 28.9628 71.1414 28.912 71.4301 28.8103V30.2338C70.9885 30.3864 70.6319 30.4542 70.2243 30.4542C69.358 30.4542 68.6956 30.0474 68.5088 29.4204C68.3899 29.0476 68.3559 28.6748 68.3559 27.6749V23.7094H67.3199Z" fill="white"/>
<path d="M73.9398 28.929V23.7094H72.3092V22.3198H75.1966V24.1161H75.2306C75.5023 23.2857 76.0289 22.7095 76.7082 22.4045C77.1838 22.2011 77.3537 22.1842 78.3727 22.1842H78.7803V23.7772H78.4746C77.0479 23.7772 76.5554 23.9128 76.0968 24.4381C75.6212 24.9804 75.5023 25.5227 75.5023 27.1665V28.929H77.2687V30.3186H72.3092V28.929H73.9398Z" fill="white"/>
<path d="M80.9203 28.929V23.7094H79.6634V22.3198H82.4829V28.929H83.7227V30.3186H79.6634V28.929H80.9203ZM80.7504 19.5914C80.7504 19.066 81.175 18.6424 81.7016 18.6424C82.2281 18.6424 82.6527 19.066 82.6527 19.5914C82.6527 20.1167 82.2281 20.5404 81.7016 20.5404C81.175 20.5404 80.7504 20.1167 80.7504 19.5914Z" fill="white"/>
<path d="M93.1151 26.7089H86.3722C86.61 28.268 87.629 29.2001 89.1237 29.2001C90.1597 29.2001 91.1279 28.7086 91.7223 27.8613L93.1151 28.4883C92.2319 29.8102 90.8052 30.5558 89.0727 30.5558C86.4741 30.5389 84.6228 28.7934 84.6228 26.3192C84.6228 23.9466 86.4911 22.0825 88.8349 22.0825C91.3147 22.0825 93.0641 23.9805 93.1151 26.7089ZM86.4231 25.5566H91.5015C91.2467 24.3025 90.1258 23.3705 88.8689 23.3705C87.6121 23.3705 86.6609 24.2178 86.4231 25.5566Z" fill="white"/>
<path d="M94.41 30.3186V27.5732H95.8197V27.8274C95.9556 28.6239 96.6859 29.1154 97.722 29.1154C98.7241 29.1154 99.3695 28.7425 99.3695 28.1325C99.3695 27.5054 99.0298 27.319 97.5012 27.0479C96.4312 26.8784 95.7688 26.6581 95.3272 26.3192C94.7497 25.8955 94.41 25.2176 94.41 24.5398C94.41 23.1671 95.5989 22.1842 97.2124 22.1842C97.9598 22.1842 98.6391 22.3537 99.1657 22.6418V22.3198H100.575V24.9634H99.1657V24.472C98.7241 23.8111 98.1296 23.4891 97.3144 23.4891C96.4651 23.4891 95.8876 23.8958 95.8876 24.472C95.8876 25.0651 96.1594 25.2007 97.8409 25.4549C99.1317 25.6583 99.5903 25.8108 100.1 26.1667C100.643 26.5564 101 27.2851 101 28.0138C101 29.4712 99.7601 30.4542 97.9088 30.4542C97.0596 30.4542 96.3972 30.2677 95.8197 29.878V30.3186H94.41Z" fill="white"/>
<path d="M0 32V29.4089H4.80425V11.7031C2.1208 11.0985 0.173126 8.68016 0.173126 5.91633C0.173126 2.67746 2.85658 0 6.1027 0C9.39209 0 12.0323 2.76383 12.0323 5.95951C12.0323 8.72335 10.0846 11.0985 7.40114 11.7031V29.4089H12.1621V32H0ZM6.1027 9.11201C7.83396 9.11201 9.30553 7.68691 9.30553 5.91633C9.30553 4.14575 7.79068 2.72065 6.1027 2.72065C4.32815 2.72065 2.89986 4.14575 2.89986 5.91633C2.89986 7.60054 4.32815 9.11201 6.1027 9.11201Z" fill="white"/>
</svg>
